<?xml version="1.0" standalone="no"?>
<!DOCTYPE svg PUBLIC "-//W3C//DTD SVG 20010904//EN"
 "http://www.w3.org/TR/2001/REC-SVG-20010904/DTD/svg10.dtd">
<svg version="1.0" xmlns="http://www.w3.org/2000/svg"
 width="757.000000pt" height="756.000000pt" viewBox="0 0 757.000000 756.000000"
 preserveAspectRatio="xMidYMid meet">

<g transform="translate(0.000000,756.000000) scale(0.100000,-0.100000)"
fill="#000000" stroke="none">
<path d="M3490 7449 c-142 -12 -371 -47 -495 -75 -163 -36 -397 -107 -402
-122 -3 -7 24 -88 60 -180 36 -92 114 -291 172 -442 59 -151 142 -365 184
-475 43 -110 95 -244 115 -297 21 -54 39 -98 41 -98 2 0 45 11 97 25 98 26
235 49 356 60 l72 7 0 804 0 804 -52 -1 c-29 -1 -96 -5 -148 -10z"/>
<path d="M3920 6656 l0 -805 48 -6 c175 -21 380 -62 453 -90 13 -5 27 22 72
142 31 81 104 272 162 423 59 151 135 349 170 440 35 91 91 237 124 324 34 88
58 163 54 167 -14 12 -233 80 -358 109 -195 46 -372 72 -647 95 l-78 7 0 -806z"/>
<path d="M2195 7097 c-272 -133 -526 -295 -748 -479 l-29 -23 168 -185 c92
-102 211 -232 264 -290 53 -58 192 -211 310 -340 348 -383 340 -375 354 -364
87 63 269 178 332 209 43 21 84 42 90 47 12 9 13 5 -170 478 -137 352 -284
732 -341 880 -30 77 -58 136 -66 137 -8 2 -81 -30 -164 -70z"/>
<path d="M5226 7161 c-3 -4 -102 -261 -221 -572 -119 -310 -248 -644 -286
-743 -39 -98 -69 -179 -67 -181 2 -1 46 -24 99 -52 91 -47 257 -154 325 -208
l30 -25 89 98 c49 53 130 142 181 197 495 538 812 890 808 896 -21 34 -333
263 -479 351 -191 115 -470 254 -479 239z"/>
<path d="M1144 6338 c-161 -166 -294 -332 -421 -523 -76 -114 -166 -265 -162
-269 6 -6 1429 -716 1434 -716 2 0 31 40 64 88 59 88 142 194 225 287 l44 50
-355 390 c-196 215 -439 481 -540 593 -101 111 -185 202 -187 202 -2 0 -48
-46 -102 -102z"/>
<path d="M6045 6068 c-170 -187 -373 -408 -450 -492 -265 -288 -310 -338 -313
-347 -2 -5 24 -40 58 -78 78 -87 160 -197 212 -283 22 -38 42 -68 44 -68 10 0
1434 716 1434 720 0 25 -191 326 -295 465 -107 142 -357 426 -374 424 -3 0
-145 -154 -316 -341z"/>
<path d="M427 5282 c-83 -185 -154 -394 -207 -602 -36 -144 -80 -369 -80 -411
0 -22 4 -23 250 -44 102 -8 431 -38 731 -65 300 -28 562 -50 582 -50 32 0 37
4 42 28 22 109 81 316 111 392 19 50 34 93 32 95 -5 5 -1388 694 -1414 705
-20 8 -25 3 -47 -48z"/>
<path d="M6412 4952 c-539 -270 -712 -361 -708 -372 3 -8 23 -67 45 -130 22
-63 52 -172 67 -242 l28 -127 40 5 c44 5 784 76 1264 121 l294 27 -7 56 c-11
95 -64 350 -101 485 -50 181 -185 536 -203 534 -3 0 -327 -161 -719 -357z"/>
<path d="M113 3723 c3 -194 11 -338 21 -413 16 -111 74 -411 81 -418 3 -4
1382 388 1499 425 46 15 48 16 42 47 -20 94 -37 257 -40 374 -2 73 -5 134 -7
137 -2 2 -139 15 -304 30 -165 14 -522 46 -793 70 -271 25 -495 45 -499 45 -3
0 -3 -134 0 -297z"/>
<path d="M7130 3975 c-124 -13 -382 -37 -575 -55 -192 -18 -426 -39 -520 -49
l-170 -16 -6 -155 c-4 -85 -15 -201 -24 -258 -10 -56 -16 -104 -14 -106 4 -4
1517 -437 1534 -440 12 -1 69 276 90 442 10 76 19 234 22 395 l5 267 -58 -1
c-33 -1 -160 -11 -284 -24z"/>
<path d="M1280 2954 c-763 -219 -994 -286 -999 -290 -6 -6 76 -226 140 -373
33 -74 90 -192 129 -263 78 -142 228 -378 240 -378 4 0 86 59 181 132 480 363
1088 825 1097 833 2 2 -15 30 -37 64 -53 83 -132 238 -171 336 -17 44 -35 83
-38 86 -4 4 -248 -62 -542 -147z"/>
<path d="M5730 3048 c-24 -66 -131 -284 -175 -355 l-26 -42 98 -75 c196 -149
1139 -859 1161 -874 20 -13 25 -13 37 -1 30 30 179 279 245 409 92 183 239
544 226 557 -6 6 -42 17 -746 219 -316 91 -619 179 -674 195 -54 16 -104 29
-111 29 -7 0 -23 -28 -35 -62z"/>
<path d="M5380 2452 c0 -17 -219 -231 -300 -293 -76 -59 -79 -64 -66 -84 7
-11 126 -203 263 -425 420 -681 565 -915 568 -918 14 -15 337 243 497 397 123
118 328 348 328 366 -1 5 -67 60 -148 120 -81 61 -366 276 -634 478 -268 202
-492 367 -497 367 -6 0 -11 -4 -11 -8z"/>
<path d="M1584 1959 c-341 -259 -627 -477 -638 -484 -18 -13 -14 -20 61 -107
175 -202 476 -473 681 -612 63 -43 74 -48 86 -35 8 8 102 158 211 334 108 176
214 347 235 380 97 153 382 618 385 628 2 7 -33 39 -77 72 -45 33 -135 113
-201 178 -65 64 -120 117 -122 117 -1 0 -281 -212 -621 -471z"/>
<path d="M4745 1939 c-67 -39 -177 -84 -310 -129 -65 -22 -111 -43 -113 -52
-1 -8 27 -171 63 -364 36 -192 95 -504 131 -694 36 -190 72 -382 81 -427 8
-46 19 -83 23 -83 37 0 436 127 550 175 180 76 480 226 480 241 0 4 -93 154
-525 854 -131 212 -254 412 -274 444 -20 33 -41 61 -46 62 -6 1 -32 -11 -60
-27z"/>
<path d="M2635 1673 c-93 -152 -281 -457 -417 -677 -137 -220 -248 -405 -248
-412 0 -16 310 -169 470 -232 208 -82 563 -184 579 -166 5 5 21 77 36 159 14
83 62 337 105 565 43 228 95 503 115 610 20 107 39 205 42 217 4 17 -1 22 -29
28 -74 16 -278 89 -377 136 -57 27 -104 49 -105 49 -1 -1 -77 -125 -171 -277z"/>
<path d="M3546 1709 c-5 -14 -86 -442 -170 -894 -25 -132 -63 -336 -86 -454
-23 -118 -38 -217 -33 -221 17 -16 210 -32 453 -37 246 -5 367 1 579 28 l93
12 -6 47 c-4 26 -36 202 -71 391 -36 189 -94 499 -130 689 -35 190 -69 369
-76 399 l-11 53 -80 -7 c-99 -8 -398 -8 -432 1 -17 4 -27 2 -30 -7z"/>
</g>
</svg>
