<?xml version="1.0" standalone="no"?>
<!DOCTYPE svg PUBLIC "-//W3C//DTD SVG 20010904//EN"
 "http://www.w3.org/TR/2001/REC-SVG-20010904/DTD/svg10.dtd">
<svg version="1.0" xmlns="http://www.w3.org/2000/svg"
 width="642.000000pt" height="838.000000pt" viewBox="0 0 642.000000 838.000000"
 preserveAspectRatio="xMidYMid meet">

<g transform="translate(0.000000,838.000000) scale(0.100000,-0.100000)"
fill="#000000" stroke="none">
<path d="M2831 8134 c-1 -87 -14 -125 -80 -233 -28 -46 -53 -98 -57 -115 -7
-40 -1 -322 7 -331 4 -3 23 4 43 16 20 11 36 19 36 16 0 -3 -9 -27 -21 -54
-25 -57 -74 -246 -84 -322 -7 -53 -7 -54 16 -47 80 22 77 24 37 -30 -48 -67
-73 -119 -87 -182 -6 -29 -11 -57 -11 -62 0 -22 27 -6 109 63 119 100 164 135
257 200 93 65 98 75 88 191 -5 56 -14 82 -40 126 -19 31 -34 59 -34 63 0 4 18
4 40 1 l39 -6 -6 38 c-29 197 -42 243 -106 380 -35 77 -79 180 -97 229 -50
139 -49 137 -49 59z"/>
<path d="M1195 8117 c3 -12 30 -129 61 -260 30 -132 54 -241 52 -243 -4 -4
-546 -84 -567 -84 -6 0 -11 -4 -11 -9 0 -5 41 -96 92 -202 l92 -192 -24 -16
c-12 -9 -93 -54 -179 -99 -198 -106 -241 -131 -241 -140 0 -4 24 -20 53 -36
164 -91 397 -275 397 -313 0 -18 -79 -120 -278 -361 -79 -96 -140 -177 -137
-180 4 -4 103 -12 222 -19 118 -6 217 -14 219 -16 2 -2 -56 -128 -130 -280
-74 -152 -136 -284 -138 -293 -3 -15 24 -24 185 -63 176 -42 187 -46 181 -65
-4 -12 -44 -110 -90 -219 -46 -109 -84 -203 -84 -208 0 -9 134 -1 180 11 20 5
38 31 85 126 130 259 261 396 486 508 93 47 145 57 155 31 3 -8 -17 -55 -46
-104 -64 -110 -126 -253 -146 -334 -33 -136 -29 -382 10 -533 13 -53 35 -66
75 -44 20 10 21 18 19 233 -2 208 0 226 21 292 40 120 96 212 124 202 15 -5
26 -65 26 -151 1 -98 28 -269 57 -356 32 -98 143 -322 192 -385 39 -52 86 -72
98 -42 3 8 -25 88 -61 178 -87 214 -113 313 -127 480 -21 255 11 409 142 674
111 226 301 495 512 727 92 101 359 349 511 476 119 99 553 412 785 565 84 56
148 103 143 105 -16 5 -193 -73 -386 -172 -362 -184 -602 -356 -879 -626 -328
-321 -528 -583 -819 -1072 -81 -136 -151 -249 -157 -253 -14 -8 -13 13 6 138
9 59 15 110 12 112 -2 2 -78 16 -167 29 -90 14 -166 28 -170 31 -3 4 12 23 34
43 22 20 100 91 173 157 73 66 168 160 213 210 76 84 179 226 179 246 0 5 -18
6 -41 3 -37 -6 -41 -5 -36 12 35 115 72 302 92 462 21 167 23 170 82 174 44 3
48 5 48 28 0 24 -3 25 -103 38 -57 8 -105 12 -107 10 -2 -1 1 -43 7 -93 21
-182 -9 -383 -82 -558 -37 -89 -64 -127 -91 -127 -10 0 -19 2 -19 5 0 2 13 37
29 78 96 241 130 442 116 676 l-7 114 151 -6 c153 -6 179 -1 149 29 -16 17
-133 32 -273 36 l-100 3 3 -40 c2 -22 4 -137 5 -255 1 -208 0 -218 -26 -305
-28 -92 -111 -274 -149 -327 -31 -44 -97 -71 -153 -63 -63 10 -72 25 -80 137
-5 74 -10 98 -22 103 -24 8 -27 1 -34 -86 -4 -44 -10 -84 -14 -87 -10 -10 -34
26 -47 71 -10 32 -8 53 9 122 l20 84 -21 19 c-12 10 -35 28 -52 40 l-31 21 -6
133 c-6 127 -6 134 15 163 61 82 88 129 88 153 0 19 -16 42 -59 82 -70 66 -84
91 -76 131 14 61 196 269 237 269 11 0 56 -13 101 -29 172 -60 609 -160 721
-164 l61 -2 8 70 c4 39 7 125 5 192 -2 97 -6 126 -19 138 -11 11 -117 37 -310
75 -528 105 -547 111 -844 245 -105 48 -106 48 -100 22z m755 -516 c361 -79
365 -80 393 -112 31 -38 36 -63 10 -55 -10 3 -108 26 -218 51 -179 41 -373 88
-478 116 -37 10 -107 62 -107 81 0 5 8 7 18 4 9 -3 181 -41 382 -85z"/>
<path d="M4303 7553 c-375 -284 -849 -789 -1163 -1238 -213 -305 -461 -754
-605 -1096 -69 -164 -233 -647 -270 -795 -26 -104 -27 -116 -19 -239 20 -311
8 -430 -67 -660 -103 -320 -235 -494 -549 -728 -338 -251 -443 -397 -443 -617
0 -135 54 -246 189 -389 146 -156 339 -288 619 -426 300 -148 582 -253 1445
-539 995 -331 990 -329 996 -323 6 6 -53 170 -266 737 -293 780 -347 948 -356
1100 -9 144 47 321 196 620 85 171 158 349 245 600 103 298 130 361 185 422
55 62 123 109 202 141 49 19 80 21 418 27 333 6 371 9 435 28 123 38 191 77
221 127 l26 45 -7 177 c-9 211 -6 220 84 317 87 93 84 117 -30 263 l-49 62 21
48 c35 79 40 104 28 145 -11 44 -59 102 -100 124 -49 25 -99 75 -99 98 0 13
17 39 41 61 73 72 86 124 48 202 -26 53 -79 93 -234 171 -126 65 -199 118
-260 191 -72 87 -83 121 -126 381 -17 102 -44 225 -60 274 -65 195 -188 387
-340 530 -92 87 -251 196 -285 196 -12 0 -44 -16 -71 -37z m717 -1283 c0 -26
-65 -90 -115 -115 -56 -27 -157 -31 -252 -10 -43 9 -89 24 -103 32 -23 13 -19
14 50 9 120 -8 202 8 300 58 96 50 120 55 120 26z m-2307 -1352 c20 -38 38
-58 50 -58 15 0 258 58 322 77 13 4 3 -13 -31 -48 -98 -105 -89 -33 -92 -717
l-4 -605 374 7 c205 5 374 9 374 9 7 7 15 1008 9 1091 l-7 107 -55 60 c-31 33
-53 62 -49 66 3 3 63 -6 133 -21 182 -38 174 -39 229 44 26 39 49 70 50 70 2
0 4 -382 4 -850 l0 -850 -685 0 -685 0 0 858 c1 948 -5 882 63 760z m872 -748
l0 -485 -242 -3 -243 -2 0 490 0 490 243 -2 242 -3 0 -485z"/>
</g>
</svg>
